<?xml version="1.0" encoding="UTF-8"?>
<svg xmlns="http://www.w3.org/2000/svg" viewBox="0 0 84.37 82.06">
  <defs>
    <style>
      .cls-1 {
        fill: #1875ba;
      }

      .cls-2 {
        fill: #243c8c;
      }

      .cls-3 {
        fill: #29295e;
      }
    </style>
  </defs>
  <g id="Camada_2" data-name="Camada 2">
    <path class="cls-3" d="M12.02,15.78c.83-.01,1.67.43,1.71.45.24.13.89.49,1.28,1.21.42.77.3,1.51.26,1.74-.21,1.19-1.04,1.33-1.2,2.57,0,0,0,0,0,1.14v1.67q0,1.36,0,1.36c.08,1.13.34,1.33.43,2.5.05.7.08,1.05-.09,1.44-.36.86-1.29,1.27-1.63,1.44-2.32,1.13-4.23,3.86-4.97,5.68-.68,1.68-.6,3.18-.51,4.77.08,1.48.14,2.55.77,3.86.07.15,1.37,2.77,3.77,4.24.3.18.78.45,1.28.98.54.57.66.99,1.2,1.97.58,1.05.87,1.58,1.2,1.89,1.26,1.2,3.43,1.08,3.68,1.06,2.1-.14,4.14-1.45,4.71-3.18.27-.83.09-1.51-.26-2.88-.3-1.15-.79-3.09-2.48-4.7-1.27-1.2-2.31-1.97-2.31-1.97-.72-.53-1.12-.75-1.37-1.29-.31-.67-.35-1.74.34-2.12.36-.2.79-.13,1.11-.08,1.26.21,2.57.06,3.85.15.22.02,1.91.13,3.85,0,2.76-.18,3.87-.71,4.62-.08.49.41.16.75.69,1.44.94,1.24,2.94,1.38,3.68,1.44.89.07,2.25.17,3.51-.61,1.4-.86,1.75-2.21,1.88-2.73.12-.45.49-1.9-.43-3.33-1.16-1.82-3.46-2.13-3.94-2.2-.76-.1-1.78-.24-2.74.23-1.56.76-1.37,2.35-2.83,2.88-.72.26-1.32.08-2.14-.08-4.25-.79-7.5.45-7.71-.15-.14-.41,1.5-.71,2.57-2.2.32-.45.82-1.32.77-4.24-.07-3.96-1.04-5.62-.09-6.29.66-.46,1.59.02,2.91.23,1.84.29,4.56.06,8.31-2.27,1.93-.79,3.04-1.86,3.6-2.5,2.53-2.89,1.95-6.33,1.71-7.72-.24-1.39-.46-2.7-1.71-3.79-.22-.19-2.09-1.75-4.45-1.29-1.76.34-2.71,1.59-3,1.97-.13.17-.74.99-.94,2.2-.28,1.62.46,2.22-.09,3.03-.42.62-1.24.81-2.31,1.06-1.71.4-2.22.04-3.85.23-2.54.29-2.71,1.3-4.37,1.14-1.34-.13-2.94-.95-3.43-2.35-.35-1.02-.12-2.4.86-3.18,1.87-1.51,5.16.22,6.42-1.21.45-.51.22-.93.34-1.82.47-3.39,5.06-5.94,8.31-6.89,1.19-.35,2.96-.85,5.22-.53,2.89.41,4.73,1.9,5.65,2.65.54.44,2.63,2.21,3.77,5.3,1.27,3.46.58,6.52.34,7.72-1.2,5.94.04,12.07-.17,18.1-.33,9.44.14,11.1,0,23.4-.03,2.5-.06,4.54-.09,5.83l.26,3.86-11.39.08-1.28-.91-.69-1.06.09-4.85c.24-.05.57-.13.94-.3,1.59-.74,2.47-2.51,2.4-4.09-.08-1.6-1.15-3.45-3.17-4.09-2.52-.79-4.93.81-5.99,2.12-.3.37-1.21,1.49-1.03,3.03.26,2.25,2.6,3.38,2.83,3.48l.51.3c-.32,1.23-.58,3.06,0,5.07.38,1.31.93,2.08,1.2,2.42.4.51,1.07,1.35,2.23,1.74.87.3,1.63.21,2.23.15,5.15-.48,5.83.81,9.42,0,.64-.14,1.77-.44,2.06-.08.17.22-.07.58-.26.98-.55,1.2-.26,2.19-.26,2.88,0,2.33-3.24,4.92-3.94,5.45-.87.66-3.38,2.52-7.28,2.73-.96.05-4.29.19-7.28-1.74-.78-.5-2.77-1.79-3.6-4.01-.55-1.47-.29-2.53-1.28-3.26-.96-.7-2.28-.5-2.91-.45-4.06.31-9.19-3.07-11.73-6.51-2.7-3.65-3.33-8.52-2.48-10.22.1-.2.49-.89.26-1.67-.27-.9-1.22-1.38-1.46-1.51-1.89-1.05-5.53-5.84-5.91-10.53-.41-5.09,2.99-10.74,5.65-12.12.34-.17,1.54-.73,1.88-1.82.27-.85-.12-1.57-.34-2.12-1.39-3.44,1.17-7.24,1.54-7.8.53-.79,1.66-2.48,3.25-2.5Z"/>
    <path class="cls-1" d="M50.01,29.63c-.24-.03-.43-.04-.49-.05v-4.33c.24.02.48.04.72.07.55.07,9.64,1.27,13.18,7.26.22.37.55.98.83,1.8l.5,1.41.02,6.62-6.37-.06-.11-6.38c-.03-.2-.08-.47-.17-.77-.91-2.95-4.69-5.15-8.11-5.57Z"/>
    <rect class="cls-3" x="38.59" y="69.98" width="8.85" height="3.31"/>
    <ellipse class="cls-3" cx="36.73" cy="65.09" rx="2.29" ry="1.94"/>
  </g>
  <g id="Camada_3" data-name="Camada 3">
    <polygon class="cls-2" points="48.96 45.83 48.97 51.06 72.98 50.82 72.82 46.41 71.86 45.13 70.61 44.48 69.51 43.99 68.43 43.74 48.91 44.05 48.96 45.83"/>
    <polygon class="cls-1" points="48.94 52.63 72.95 52.41 72.85 66.7 49.12 66.64 48.94 52.63"/>
    <polygon class="cls-2" points="48.99 69.79 48.91 77.71 68.88 77.89 70.73 77.14 71.91 76.25 72.8 74.97 73.09 74.26 73.09 69.71 48.99 69.79"/>
  </g>
  <g id="Camada_5" data-name="Camada 5">
    <path class="cls-3" d="M56.03,6.53c-.56.26-.96.69-.96.69-.18.19-.73.78-.83,1.72-.07.71.15,1.24.21,1.38.06.13.45.99,1.24,1.31.88.36,1.84-.12,2.2-.28,2.12-.93,4.87-.09,7.43.69,3.61,1.1,5.9,3.12,7.36,4.4,1.08.96,2.37,2.09,3.58,3.99,1.13,1.78,2.38,3.75,2.55,6.4.06.93,0,2.29.83,3.72.54.94,1.03,1.16,1.31,1.24.96.27,1.86-.46,2.06-.62.24-.19.93-.81,1.24-2.2.38-1.75-.14-3.43-1.72-6.88-1.55-3.39-2.33-5.09-3.23-6.33-.77-1.06-2.57-3.33-5.57-5.37-2.9-1.97-5.27-2.59-9.5-3.72,0,0-5.43-1.44-8.19-.14Z"/>
    <path class="cls-2" d="M57.44,16.61c-.35.05-1.03.16-1.51.69-.39.43-.48.94-.62,1.72-.1.57-.18,1.06,0,1.65.06.19.18.58.48.89.55.56,1.36.53,2.27.55,1.01.02,2.02.19,3.03.28,2.51.22,5.16,2.21,6.33,4.4.89,1.67,1.53,2.87,1.65,4.27.02.25.06.84.48,1.31.64.71,1.72.63,1.86.62,1.11-.09,1.79-.91,2.06-1.24.2-.24.64-.76.76-1.51.15-.96-.3-1.71-.76-2.55-1.43-2.61-.94-2.5-1.86-3.92-1.45-2.24-3.27-3.48-4.68-4.4-4.84-3.2-8.75-2.86-9.5-2.75Z"/>
  </g>
</svg>